<?xml version="1.0" encoding="UTF-8" standalone="no"?>
<!DOCTYPE svg PUBLIC "-//W3C//DTD SVG 1.0//EN" "http://www.w3.org/TR/2001/REC-SVG-20010904/DTD/svg10.dtd">
<!-- Generated by Microsoft Visio 11.0, SVG Export, v1.0 multiplier.svg Page-1 -->
<svg xmlns="http://www.w3.org/2000/svg" xmlns:xlink="http://www.w3.org/1999/xlink" xmlns:ev="http://www.w3.org/2001/xml-events"
		xmlns:v="http://schemas.microsoft.com/visio/2003/SVGExtensions/" width="8.76099in" height="6.72774in"
		viewBox="0 0 630.791 484.397" xml:space="preserve" color-interpolation-filters="sRGB" class="st12">
	<v:documentProperties v:langID="2057" v:metric="true" v:viewMarkup="false"/>

	<style type="text/css">
	<![CDATA[
		.st1 {fill:#ffffff;stroke:#000000;stroke-dasharray:2.25,2.25;stroke-linecap:round;stroke-linejoin:round;stroke-width:0.75}
		.st2 {fill:#d7e3bf;stroke:#000000;stroke-linecap:round;stroke-linejoin:round;stroke-width:0.75}
		.st3 {fill:#000000;font-family:Calibri;font-size:1.00001em}
		.st4 {fill:#8db1e2;stroke:#000000;stroke-linecap:round;stroke-linejoin:round;stroke-width:0.75}
		.st5 {stroke:#000000;stroke-linecap:round;stroke-linejoin:round;stroke-width:0.75}
		.st6 {fill:#ffffff;stroke:#000000;stroke-dasharray:5.25,3.75;stroke-linecap:round;stroke-linejoin:round;stroke-width:0.75}
		.st7 {fill:#e5b9b5;stroke:#000000;stroke-linecap:round;stroke-linejoin:round;stroke-width:0.75}
		.st8 {marker-end:url(#mrkr4-148);stroke:#000000;stroke-linecap:round;stroke-linejoin:round;stroke-width:0.75}
		.st9 {fill:#000000;fill-opacity:1;stroke:#000000;stroke-opacity:1;stroke-width:0.22935779816514}
		.st10 {fill:none;stroke:none;stroke-linecap:round;stroke-linejoin:round;stroke-width:0.75}
		.st11 {font-size:1em}
		.st12 {fill:none;fill-rule:evenodd;font-size:12px;overflow:visible;stroke-linecap:square;stroke-miterlimit:3}
	]]>
	</style>

	<defs id="Markers">
		<g id="lend4">
			<path d="M 2 1 L 0 0 L 2 -1 L 2 1 " style="stroke:none"/>
		</g>
		<marker id="mrkr4-148" class="st9" v:arrowType="4" v:arrowSize="2" v:setback="8.72" refX="-8.72" orient="auto"
				markerUnits="strokeWidth" overflow="visible">
			<use xlink:href="#lend4" transform="scale(-4.36,-4.36) "/>
		</marker>
	</defs>
	<g v:mID="0" v:index="1" v:groupContext="foregroundPage">
		<title>Page-1</title>
		<v:pageProperties v:drawingScale="0.0393701" v:pageScale="0.0393701" v:drawingUnits="24" v:shadowOffsetX="8.50394"
				v:shadowOffsetY="-8.50394"/>
		<g id="shape15-1" v:mID="15" v:groupContext="shape" transform="translate(210.514,-143.49)">
			<title>Sheet.15</title>
			<path d="M0 484.4 L198.43 484.4 L198.43 229.28 L0 229.28 L0 484.4 Z" class="st1"/>
		</g>
		<g id="shape1-3" v:mID="1" v:groupContext="shape" transform="translate(233.191,-409.947)">
			<title>Sheet.1</title>
			<desc>SW[9..4]</desc>
			<v:textBlock v:margins="rect(4,4,4,4)" v:tabSpace="42.5197"/>
			<v:textRect cx="34.0157" cy="470.224" width="68.04" height="28.3465"/>
			<rect x="0" y="456.051" width="68.0315" height="28.3465" rx="5.66929" ry="5.66929" class="st2"/>
			<text x="13.13" y="473.82" class="st3" v:langID="2057"><v:paragraph v:horizAlign="1"/><v:tabList/>SW[9..4]</text>		</g>
		<g id="shape2-6" v:mID="2" v:groupContext="shape" transform="translate(233.191,-361.758)">
			<title>Sheet.2</title>
			<desc>Register</desc>
			<v:textBlock v:margins="rect(4,4,4,4)" v:tabSpace="42.5197"/>
			<v:textRect cx="34.0157" cy="470.224" width="68.04" height="28.3465"/>
			<rect x="0" y="456.051" width="68.0315" height="28.3465" class="st4"/>
			<text x="14.14" y="473.82" class="st3" v:langID="2057"><v:paragraph v:horizAlign="1"/><v:tabList/>Register</text>		</g>
		<g id="shape3-9" v:mID="3" v:groupContext="shape" transform="translate(318.23,-409.947)">
			<title>Sheet.3</title>
			<desc>SW[3..0]</desc>
			<v:textBlock v:margins="rect(4,4,4,4)" v:tabSpace="42.5197"/>
			<v:textRect cx="34.0157" cy="470.224" width="68.04" height="28.3465"/>
			<rect x="0" y="456.051" width="68.0315" height="28.3465" rx="5.66929" ry="5.66929" class="st2"/>
			<text x="13.13" y="473.82" class="st3" v:langID="2057"><v:paragraph v:horizAlign="1"/><v:tabList/>SW[3..0]</text>		</g>
		<g id="shape4-12" v:mID="4" v:groupContext="shape" transform="translate(318.23,-361.758)">
			<title>Sheet.4</title>
			<desc>Register</desc>
			<v:textBlock v:margins="rect(4,4,4,4)" v:tabSpace="42.5197"/>
			<v:textRect cx="34.0157" cy="470.224" width="68.04" height="28.3465"/>
			<rect x="0" y="456.051" width="68.0315" height="28.3465" class="st4"/>
			<text x="14.14" y="473.82" class="st3" v:langID="2057"><v:paragraph v:horizAlign="1"/><v:tabList/>Register</text>		</g>
		<g id="shape7-15" v:mID="7" v:groupContext="shape" transform="translate(233.191,-375.931)">
			<title>Sheet.7</title>
			<path d="M0 470.22 L7.09 477.31 L0 484.4" class="st5"/>
		</g>
		<g id="shape8-18" v:mID="8" v:groupContext="shape" transform="translate(318.23,-375.931)">
			<title>Sheet.8</title>
			<path d="M0 470.22 L7.09 477.31 L0 484.4" class="st5"/>
		</g>
		<g id="shape12-21" v:mID="12" v:groupContext="shape" transform="translate(233.191,-154.829)">
			<title>Sheet.12</title>
			<desc>Register</desc>
			<v:textBlock v:margins="rect(4,4,4,4)" v:tabSpace="42.5197"/>
			<v:textRect cx="76.5354" cy="470.224" width="153.08" height="28.3465"/>
			<rect x="0" y="456.051" width="153.071" height="28.3465" class="st4"/>
			<text x="56.66" y="473.82" class="st3" v:langID="2057"><v:paragraph v:horizAlign="1"/><v:tabList/>Register</text>		</g>
		<g id="shape13-24" v:mID="13" v:groupContext="shape" transform="translate(233.191,-169.002)">
			<title>Sheet.13</title>
			<path d="M0 470.22 L7.09 477.31 L0 484.4" class="st5"/>
		</g>
		<g id="shape14-27" v:mID="14" v:groupContext="shape" transform="translate(231.774,-103.805)">
			<title>Sheet.14</title>
			<desc>LEDG[9..0]</desc>
			<v:textBlock v:margins="rect(4,4,4,4)" v:tabSpace="42.5197"/>
			<v:textRect cx="77.2441" cy="470.224" width="154.49" height="28.3465"/>
			<rect x="0" y="456.051" width="154.488" height="28.3465" rx="5.66929" ry="5.66929" class="st2"/>
			<text x="51.52" y="473.82" class="st3" v:langID="2057"><v:paragraph v:horizAlign="1"/><v:tabList/>LEDG[9..0]</text>		</g>
		<g id="shape16-30" v:mID="16" v:groupContext="shape" transform="translate(12.0886,-239.868)">
			<title>Sheet.16</title>
			<path d="M0 484.4 L175.75 484.4 L175.75 325.66 L0 325.66 L0 484.4 Z" class="st6"/>
		</g>
		<g id="shape17-32" v:mID="17" v:groupContext="shape" transform="translate(23.4272,-409.947)">
			<title>Sheet.17</title>
			<desc>SW[9..4]</desc>
			<v:textBlock v:margins="rect(4,4,4,4)" v:tabSpace="42.5197"/>
			<v:textRect cx="34.0157" cy="470.224" width="68.04" height="28.3465"/>
			<rect x="0" y="456.051" width="68.0315" height="28.3465" rx="5.66929" ry="5.66929" class="st2"/>
			<text x="13.13" y="473.82" class="st3" v:langID="2057"><v:paragraph v:horizAlign="1"/><v:tabList/>SW[9..4]</text>		</g>
		<g id="shape19-35" v:mID="19" v:groupContext="shape" transform="translate(108.467,-409.947)">
			<title>Sheet.19</title>
			<desc>SW[3..0]</desc>
			<v:textBlock v:margins="rect(4,4,4,4)" v:tabSpace="42.5197"/>
			<v:textRect cx="34.0157" cy="470.224" width="68.04" height="28.3465"/>
			<rect x="0" y="456.051" width="68.0315" height="28.3465" rx="5.66929" ry="5.66929" class="st2"/>
			<text x="13.13" y="473.82" class="st3" v:langID="2057"><v:paragraph v:horizAlign="1"/><v:tabList/>SW[3..0]</text>		</g>
		<g id="shape23-38" v:mID="23" v:groupContext="shape" transform="translate(23.4272,-364.592)">
			<title>Sheet.23</title>
			<desc>Stage 0</desc>
			<v:textBlock v:margins="rect(4,4,4,4)" v:tabSpace="42.5197"/>
			<v:textRect cx="76.5354" cy="473.059" width="153.08" height="22.6772"/>
			<path d="M5.47 484.4 L147.6 484.4 L153.07 478.73 L153.07 461.72 L0 461.72 L0 478.73 L5.47 484.4 Z" class="st7"/>
			<text x="58.69" y="476.66" class="st3" v:langID="2057"><v:paragraph v:horizAlign="1"/><v:tabList/>Stage 0</text>		</g>
		<g id="shape24-41" v:mID="24" v:groupContext="shape" transform="translate(23.4272,-336.246)">
			<title>Sheet.24</title>
			<desc>Stage 1</desc>
			<v:textBlock v:margins="rect(4,4,4,4)" v:tabSpace="42.5197"/>
			<v:textRect cx="76.5354" cy="473.059" width="153.08" height="22.6772"/>
			<path d="M5.47 484.4 L147.6 484.4 L153.07 478.73 L153.07 461.72 L0 461.72 L0 478.73 L5.47 484.4 Z" class="st7"/>
			<text x="58.69" y="476.66" class="st3" v:langID="2057"><v:paragraph v:horizAlign="1"/><v:tabList/>Stage 1</text>		</g>
		<g id="shape25-44" v:mID="25" v:groupContext="shape" transform="translate(23.4272,-307.899)">
			<title>Sheet.25</title>
			<desc>Stage 2</desc>
			<v:textBlock v:margins="rect(4,4,4,4)" v:tabSpace="42.5197"/>
			<v:textRect cx="76.5354" cy="473.059" width="153.08" height="22.6772"/>
			<path d="M5.47 484.4 L147.6 484.4 L153.07 478.73 L153.07 461.72 L0 461.72 L0 478.73 L5.47 484.4 Z" class="st7"/>
			<text x="58.69" y="476.66" class="st3" v:langID="2057"><v:paragraph v:horizAlign="1"/><v:tabList/>Stage 2</text>		</g>
		<g id="shape26-47" v:mID="26" v:groupContext="shape" transform="translate(23.4272,-279.553)">
			<title>Sheet.26</title>
			<desc>Stage 3</desc>
			<v:textBlock v:margins="rect(4,4,4,4)" v:tabSpace="42.5197"/>
			<v:textRect cx="76.5354" cy="473.059" width="153.08" height="22.6772"/>
			<path d="M5.47 484.4 L147.6 484.4 L153.07 478.73 L153.07 461.72 L0 461.72 L0 478.73 L5.47 484.4 Z" class="st7"/>
			<text x="58.69" y="476.66" class="st3" v:langID="2057"><v:paragraph v:horizAlign="1"/><v:tabList/>Stage 3</text>		</g>
		<g id="shape27-50" v:mID="27" v:groupContext="shape" transform="translate(23.4272,-251.206)">
			<title>Sheet.27</title>
			<desc>Stage 4</desc>
			<v:textBlock v:margins="rect(4,4,4,4)" v:tabSpace="42.5197"/>
			<v:textRect cx="76.5354" cy="473.059" width="153.08" height="22.6772"/>
			<path d="M5.47 484.4 L147.6 484.4 L153.07 478.73 L153.07 461.72 L0 461.72 L0 478.73 L5.47 484.4 Z" class="st7"/>
			<text x="58.69" y="476.66" class="st3" v:langID="2057"><v:paragraph v:horizAlign="1"/><v:tabList/>Stage 4</text>		</g>
		<g id="shape30-53" v:mID="30" v:groupContext="shape" transform="translate(22.0098,-200.183)">
			<title>Sheet.30</title>
			<desc>LEDG[9..0]</desc>
			<v:textBlock v:margins="rect(4,4,4,4)" v:tabSpace="42.5197"/>
			<v:textRect cx="77.2441" cy="470.224" width="154.49" height="28.3465"/>
			<rect x="0" y="456.051" width="154.488" height="28.3465" rx="5.66929" ry="5.66929" class="st2"/>
			<text x="51.52" y="473.82" class="st3" v:langID="2057"><v:paragraph v:horizAlign="1"/><v:tabList/>LEDG[9..0]</text>		</g>
		<g id="shape5-56" v:mID="5" v:groupContext="shape" transform="translate(221.852,-194.514)">
			<title>Sheet.5</title>
			<path d="M0 484.4 L175.75 484.4 L175.75 325.66 L0 325.66 L0 484.4 Z" class="st6"/>
		</g>
		<g id="shape6-58" v:mID="6" v:groupContext="shape" transform="translate(233.191,-319.238)">
			<title>Sheet.6</title>
			<desc>Stage 0</desc>
			<v:textBlock v:margins="rect(4,4,4,4)" v:tabSpace="42.5197"/>
			<v:textRect cx="76.5354" cy="473.059" width="153.08" height="22.6772"/>
			<path d="M5.47 484.4 L147.6 484.4 L153.07 478.73 L153.07 461.72 L0 461.72 L0 478.73 L5.47 484.4 Z" class="st7"/>
			<text x="58.69" y="476.66" class="st3" v:langID="2057"><v:paragraph v:horizAlign="1"/><v:tabList/>Stage 0</text>		</g>
		<g id="shape9-61" v:mID="9" v:groupContext="shape" transform="translate(233.191,-290.892)">
			<title>Sheet.9</title>
			<desc>Stage 1</desc>
			<v:textBlock v:margins="rect(4,4,4,4)" v:tabSpace="42.5197"/>
			<v:textRect cx="76.5354" cy="473.059" width="153.08" height="22.6772"/>
			<path d="M5.47 484.4 L147.6 484.4 L153.07 478.73 L153.07 461.72 L0 461.72 L0 478.73 L5.47 484.4 Z" class="st7"/>
			<text x="58.69" y="476.66" class="st3" v:langID="2057"><v:paragraph v:horizAlign="1"/><v:tabList/>Stage 1</text>		</g>
		<g id="shape10-64" v:mID="10" v:groupContext="shape" transform="translate(233.191,-262.545)">
			<title>Sheet.10</title>
			<desc>Stage 2</desc>
			<v:textBlock v:margins="rect(4,4,4,4)" v:tabSpace="42.5197"/>
			<v:textRect cx="76.5354" cy="473.059" width="153.08" height="22.6772"/>
			<path d="M5.47 484.4 L147.6 484.4 L153.07 478.73 L153.07 461.72 L0 461.72 L0 478.73 L5.47 484.4 Z" class="st7"/>
			<text x="58.69" y="476.66" class="st3" v:langID="2057"><v:paragraph v:horizAlign="1"/><v:tabList/>Stage 2</text>		</g>
		<g id="shape11-67" v:mID="11" v:groupContext="shape" transform="translate(233.191,-234.199)">
			<title>Sheet.11</title>
			<desc>Stage 3</desc>
			<v:textBlock v:margins="rect(4,4,4,4)" v:tabSpace="42.5197"/>
			<v:textRect cx="76.5354" cy="473.059" width="153.08" height="22.6772"/>
			<path d="M5.47 484.4 L147.6 484.4 L153.07 478.73 L153.07 461.72 L0 461.72 L0 478.73 L5.47 484.4 Z" class="st7"/>
			<text x="58.69" y="476.66" class="st3" v:langID="2057"><v:paragraph v:horizAlign="1"/><v:tabList/>Stage 3</text>		</g>
		<g id="shape18-70" v:mID="18" v:groupContext="shape" transform="translate(233.191,-205.852)">
			<title>Sheet.18</title>
			<desc>Stage 4</desc>
			<v:textBlock v:margins="rect(4,4,4,4)" v:tabSpace="42.5197"/>
			<v:textRect cx="76.5354" cy="473.059" width="153.08" height="22.6772"/>
			<path d="M5.47 484.4 L147.6 484.4 L153.07 478.73 L153.07 461.72 L0 461.72 L0 478.73 L5.47 484.4 Z" class="st7"/>
			<text x="58.69" y="476.66" class="st3" v:langID="2057"><v:paragraph v:horizAlign="1"/><v:tabList/>Stage 4</text>		</g>
		<g id="shape20-73" v:mID="20" v:groupContext="shape" transform="translate(431.616,-52.7813)">
			<title>Sheet.20</title>
			<path d="M0 484.4 L198.43 484.4 L198.43 138.57 L0 138.57 L0 484.4 Z" class="st1"/>
		</g>
		<g id="shape21-75" v:mID="21" v:groupContext="shape" transform="translate(454.293,-409.947)">
			<title>Sheet.21</title>
			<desc>SW[9..4]</desc>
			<v:textBlock v:margins="rect(4,4,4,4)" v:tabSpace="42.5197"/>
			<v:textRect cx="34.0157" cy="470.224" width="68.04" height="28.3465"/>
			<rect x="0" y="456.051" width="68.0315" height="28.3465" rx="5.66929" ry="5.66929" class="st2"/>
			<text x="13.13" y="473.82" class="st3" v:langID="2057"><v:paragraph v:horizAlign="1"/><v:tabList/>SW[9..4]</text>		</g>
		<g id="shape22-78" v:mID="22" v:groupContext="shape" transform="translate(454.293,-361.758)">
			<title>Sheet.22</title>
			<desc>Register</desc>
			<v:textBlock v:margins="rect(4,4,4,4)" v:tabSpace="42.5197"/>
			<v:textRect cx="34.0157" cy="470.224" width="68.04" height="28.3465"/>
			<rect x="0" y="456.051" width="68.0315" height="28.3465" class="st4"/>
			<text x="14.14" y="473.82" class="st3" v:langID="2057"><v:paragraph v:horizAlign="1"/><v:tabList/>Register</text>		</g>
		<g id="shape28-81" v:mID="28" v:groupContext="shape" transform="translate(539.333,-409.947)">
			<title>Sheet.28</title>
			<desc>SW[3..0]</desc>
			<v:textBlock v:margins="rect(4,4,4,4)" v:tabSpace="42.5197"/>
			<v:textRect cx="34.0157" cy="470.224" width="68.04" height="28.3465"/>
			<rect x="0" y="456.051" width="68.0315" height="28.3465" rx="5.66929" ry="5.66929" class="st2"/>
			<text x="13.13" y="473.82" class="st3" v:langID="2057"><v:paragraph v:horizAlign="1"/><v:tabList/>SW[3..0]</text>		</g>
		<g id="shape29-84" v:mID="29" v:groupContext="shape" transform="translate(539.333,-361.758)">
			<title>Sheet.29</title>
			<desc>Register</desc>
			<v:textBlock v:margins="rect(4,4,4,4)" v:tabSpace="42.5197"/>
			<v:textRect cx="34.0157" cy="470.224" width="68.04" height="28.3465"/>
			<rect x="0" y="456.051" width="68.0315" height="28.3465" class="st4"/>
			<text x="14.14" y="473.82" class="st3" v:langID="2057"><v:paragraph v:horizAlign="1"/><v:tabList/>Register</text>		</g>
		<g id="shape31-87" v:mID="31" v:groupContext="shape" transform="translate(454.293,-375.931)">
			<title>Sheet.31</title>
			<path d="M0 470.22 L7.09 477.31 L0 484.4" class="st5"/>
		</g>
		<g id="shape32-90" v:mID="32" v:groupContext="shape" transform="translate(539.333,-375.931)">
			<title>Sheet.32</title>
			<path d="M0 470.22 L7.09 477.31 L0 484.4" class="st5"/>
		</g>
		<g id="shape33-93" v:mID="33" v:groupContext="shape" transform="translate(454.293,-64.1199)">
			<title>Sheet.33</title>
			<desc>Register</desc>
			<v:textBlock v:margins="rect(4,4,4,4)" v:tabSpace="42.5197"/>
			<v:textRect cx="76.5354" cy="470.224" width="153.08" height="28.3465"/>
			<rect x="0" y="456.051" width="153.071" height="28.3465" class="st4"/>
			<text x="56.66" y="473.82" class="st3" v:langID="2057"><v:paragraph v:horizAlign="1"/><v:tabList/>Register</text>		</g>
		<g id="shape34-96" v:mID="34" v:groupContext="shape" transform="translate(454.293,-78.2931)">
			<title>Sheet.34</title>
			<path d="M0 470.22 L7.09 477.31 L0 484.4" class="st5"/>
		</g>
		<g id="shape35-99" v:mID="35" v:groupContext="shape" transform="translate(452.876,-13.0962)">
			<title>Sheet.35</title>
			<desc>LEDG[9..0]</desc>
			<v:textBlock v:margins="rect(4,4,4,4)" v:tabSpace="42.5197"/>
			<v:textRect cx="77.2441" cy="470.224" width="154.49" height="28.3465"/>
			<rect x="0" y="456.051" width="154.488" height="28.3465" rx="5.66929" ry="5.66929" class="st2"/>
			<text x="51.52" y="473.82" class="st3" v:langID="2057"><v:paragraph v:horizAlign="1"/><v:tabList/>LEDG[9..0]</text>		</g>
		<g id="shape36-102" v:mID="36" v:groupContext="shape" transform="translate(442.955,-103.805)">
			<title>Sheet.36</title>
			<path d="M0 484.4 L175.75 484.4 L175.75 234.95 L0 234.95 L0 484.4 Z" class="st6"/>
		</g>
		<g id="shape37-104" v:mID="37" v:groupContext="shape" transform="translate(454.293,-319.238)">
			<title>Sheet.37</title>
			<desc>Stage 0</desc>
			<v:textBlock v:margins="rect(4,4,4,4)" v:tabSpace="42.5197"/>
			<v:textRect cx="76.5354" cy="473.059" width="153.08" height="22.6772"/>
			<path d="M5.47 484.4 L147.6 484.4 L153.07 478.73 L153.07 461.72 L0 461.72 L0 478.73 L5.47 484.4 Z" class="st7"/>
			<text x="58.69" y="476.66" class="st3" v:langID="2057"><v:paragraph v:horizAlign="1"/><v:tabList/>Stage 0</text>		</g>
		<g id="shape42-107" v:mID="42" v:groupContext="shape" transform="translate(459.963,-296.561)">
			<title>Sheet.42</title>
			<desc>Pipeline Register</desc>
			<v:textBlock v:margins="rect(4,4,4,4)" v:tabSpace="42.5197"/>
			<v:textRect cx="70.8661" cy="475.893" width="141.74" height="17.0079"/>
			<rect x="0" y="467.39" width="141.732" height="17.0079" class="st4"/>
			<text x="30.13" y="479.49" class="st3" v:langID="2057"><v:paragraph v:horizAlign="1"/><v:tabList/>Pipeline Register</text>		</g>
		<g id="shape43-110" v:mID="43" v:groupContext="shape" transform="translate(459.963,-296.561)">
			<title>Sheet.43</title>
			<path d="M0 467.39 L7.09 475.89 L0 484.4" class="st5"/>
		</g>
		<g id="shape38-113" v:mID="38" v:groupContext="shape" transform="translate(454.293,-268.214)">
			<title>Sheet.38</title>
			<desc>Stage 1</desc>
			<v:textBlock v:margins="rect(4,4,4,4)" v:tabSpace="42.5197"/>
			<v:textRect cx="76.5354" cy="473.059" width="153.08" height="22.6772"/>
			<path d="M5.47 484.4 L147.6 484.4 L153.07 478.73 L153.07 461.72 L0 461.72 L0 478.73 L5.47 484.4 Z" class="st7"/>
			<text x="58.69" y="476.66" class="st3" v:langID="2057"><v:paragraph v:horizAlign="1"/><v:tabList/>Stage 1</text>		</g>
		<g id="shape41-116" v:mID="41" v:groupContext="shape" transform="translate(454.293,-217.191)">
			<title>Sheet.41</title>
			<desc>Stage 2</desc>
			<v:textBlock v:margins="rect(4,4,4,4)" v:tabSpace="42.5197"/>
			<v:textRect cx="76.5354" cy="473.059" width="153.08" height="22.6772"/>
			<path d="M5.47 484.4 L147.6 484.4 L153.07 478.73 L153.07 461.72 L0 461.72 L0 478.73 L5.47 484.4 Z" class="st7"/>
			<text x="58.69" y="476.66" class="st3" v:langID="2057"><v:paragraph v:horizAlign="1"/><v:tabList/>Stage 2</text>		</g>
		<g id="shape46-119" v:mID="46" v:groupContext="shape" transform="translate(454.293,-166.167)">
			<title>Sheet.46</title>
			<desc>Stage 3</desc>
			<v:textBlock v:margins="rect(4,4,4,4)" v:tabSpace="42.5197"/>
			<v:textRect cx="76.5354" cy="473.059" width="153.08" height="22.6772"/>
			<path d="M5.47 484.4 L147.6 484.4 L153.07 478.73 L153.07 461.72 L0 461.72 L0 478.73 L5.47 484.4 Z" class="st7"/>
			<text x="58.69" y="476.66" class="st3" v:langID="2057"><v:paragraph v:horizAlign="1"/><v:tabList/>Stage 3</text>		</g>
		<g id="shape49-122" v:mID="49" v:groupContext="shape" transform="translate(454.293,-115.143)">
			<title>Sheet.49</title>
			<desc>Stage 4</desc>
			<v:textBlock v:margins="rect(4,4,4,4)" v:tabSpace="42.5197"/>
			<v:textRect cx="76.5354" cy="473.059" width="153.08" height="22.6772"/>
			<path d="M5.47 484.4 L147.6 484.4 L153.07 478.73 L153.07 461.72 L0 461.72 L0 478.73 L5.47 484.4 Z" class="st7"/>
			<text x="58.69" y="476.66" class="st3" v:langID="2057"><v:paragraph v:horizAlign="1"/><v:tabList/>Stage 4</text>		</g>
		<g id="shape39-125" v:mID="39" v:groupContext="shape" transform="translate(459.963,-245.537)">
			<title>Sheet.39</title>
			<desc>Pipeline Register</desc>
			<v:textBlock v:margins="rect(4,4,4,4)" v:tabSpace="42.5197"/>
			<v:textRect cx="70.8661" cy="475.893" width="141.74" height="17.0079"/>
			<rect x="0" y="467.39" width="141.732" height="17.0079" class="st4"/>
			<text x="30.13" y="479.49" class="st3" v:langID="2057"><v:paragraph v:horizAlign="1"/><v:tabList/>Pipeline Register</text>		</g>
		<g id="shape40-128" v:mID="40" v:groupContext="shape" transform="translate(459.963,-245.537)">
			<title>Sheet.40</title>
			<path d="M0 467.39 L7.09 475.89 L0 484.4" class="st5"/>
		</g>
		<g id="shape44-131" v:mID="44" v:groupContext="shape" transform="translate(459.963,-194.514)">
			<title>Sheet.44</title>
			<desc>Pipeline Register</desc>
			<v:textBlock v:margins="rect(4,4,4,4)" v:tabSpace="42.5197"/>
			<v:textRect cx="70.8661" cy="475.893" width="141.74" height="17.0079"/>
			<rect x="0" y="467.39" width="141.732" height="17.0079" class="st4"/>
			<text x="30.13" y="479.49" class="st3" v:langID="2057"><v:paragraph v:horizAlign="1"/><v:tabList/>Pipeline Register</text>		</g>
		<g id="shape45-134" v:mID="45" v:groupContext="shape" transform="translate(459.963,-194.514)">
			<title>Sheet.45</title>
			<path d="M0 467.39 L7.09 475.89 L0 484.4" class="st5"/>
		</g>
		<g id="shape47-137" v:mID="47" v:groupContext="shape" transform="translate(459.963,-143.49)">
			<title>Sheet.47</title>
			<desc>Pipeline Register</desc>
			<v:textBlock v:margins="rect(4,4,4,4)" v:tabSpace="42.5197"/>
			<v:textRect cx="70.8661" cy="475.893" width="141.74" height="17.0079"/>
			<rect x="0" y="467.39" width="141.732" height="17.0079" class="st4"/>
			<text x="30.13" y="479.49" class="st3" v:langID="2057"><v:paragraph v:horizAlign="1"/><v:tabList/>Pipeline Register</text>		</g>
		<g id="shape48-140" v:mID="48" v:groupContext="shape" transform="translate(459.963,-143.49)">
			<title>Sheet.48</title>
			<path d="M0 467.39 L7.09 475.89 L0 484.4" class="st5"/>
		</g>
		<g id="shape50-143" v:mID="50" v:groupContext="shape" transform="translate(541.84,74.4508) rotate(90)">
			<title>Sheet.50</title>
			<path d="M0 484.4 L16.14 484.4" class="st8"/>
		</g>
		<g id="shape51-149" v:mID="51" v:groupContext="shape" transform="translate(626.88,74.4508) rotate(90)">
			<title>Sheet.51</title>
			<path d="M0 484.4 L16.14 484.4" class="st8"/>
		</g>
		<g id="shape52-154" v:mID="52" v:groupContext="shape" transform="translate(583.982,233.191) rotate(90)">
			<title>Sheet.52</title>
			<path d="M0 484.4 L16.14 484.4" class="st8"/>
		</g>
		<g id="shape53-159" v:mID="53" v:groupContext="shape" transform="translate(751.604,74.4508) rotate(90)">
			<title>Sheet.53</title>
			<path d="M0 484.4 L13.3 484.4" class="st8"/>
		</g>
		<g id="shape54-164" v:mID="54" v:groupContext="shape" transform="translate(836.643,74.4508) rotate(90)">
			<title>Sheet.54</title>
			<path d="M0 484.4 L13.3 484.4" class="st8"/>
		</g>
		<g id="shape55-169" v:mID="55" v:groupContext="shape" transform="translate(795.636,329.569) rotate(90)">
			<title>Sheet.55</title>
			<path d="M0 484.4 L16.14 484.4" class="st8"/>
		</g>
		<g id="shape56-174" v:mID="56" v:groupContext="shape" transform="translate(751.604,122.64) rotate(90)">
			<title>Sheet.56</title>
			<path d="M0 484.4 L13.3 484.4" class="st8"/>
		</g>
		<g id="shape57-179" v:mID="57" v:groupContext="shape" transform="translate(836.643,122.64) rotate(90)">
			<title>Sheet.57</title>
			<path d="M0 484.4 L13.3 484.4" class="st8"/>
		</g>
		<g id="shape58-184" v:mID="58" v:groupContext="shape" transform="translate(795.541,278.545) rotate(90)">
			<title>Sheet.58</title>
			<path d="M0 484.4 L16.14 484.4" class="st8"/>
		</g>
		<g id="shape59-189" v:mID="59" v:groupContext="shape" transform="translate(972.706,74.4508) rotate(90)">
			<title>Sheet.59</title>
			<path d="M0 484.4 L13.3 484.4" class="st8"/>
		</g>
		<g id="shape60-194" v:mID="60" v:groupContext="shape" transform="translate(1057.75,74.4508) rotate(90)">
			<title>Sheet.60</title>
			<path d="M0 484.4 L13.3 484.4" class="st8"/>
		</g>
		<g id="shape61-199" v:mID="61" v:groupContext="shape" transform="translate(1016.64,369.254) rotate(90)">
			<title>Sheet.61</title>
			<path d="M0 484.4 L16.14 484.4" class="st8"/>
		</g>
		<g id="shape62-204" v:mID="62" v:groupContext="shape" transform="translate(1016.64,420.278) rotate(90)">
			<title>Sheet.62</title>
			<path d="M0 484.4 L16.14 484.4" class="st8"/>
		</g>
		<g id="shape63-209" v:mID="63" v:groupContext="shape" transform="translate(972.706,122.64) rotate(90)">
			<title>Sheet.63</title>
			<path d="M0 484.4 L13.3 484.4" class="st8"/>
		</g>
		<g id="shape64-214" v:mID="64" v:groupContext="shape" transform="translate(1057.75,122.64) rotate(90)">
			<title>Sheet.64</title>
			<path d="M0 484.4 L13.3 484.4" class="st8"/>
		</g>
		<g id="shape65-219" v:mID="65" v:groupContext="shape" transform="translate(102.797,-103.805)">
			<title>Sheet.65</title>
			<desc>Combinatorial</desc>
			<v:textBlock v:margins="rect(4,4,4,4)" v:tabSpace="42.5197"/>
			<v:textRect cx="42.5197" cy="473.059" width="85.04" height="22.6772"/>
			<path d="M5.67 484.4 L79.37 484.4 L85.04 478.73 L85.04 461.72 L0 461.72 L0 478.73 L5.67 484.4 Z" class="st7"/>
			<text x="7.91" y="476.66" class="st3" v:langID="2057"><v:paragraph v:horizAlign="1"/><v:tabList/>Combinatorial</text>		</g>
		<g id="shape66-222" v:mID="66" v:groupContext="shape" transform="translate(102.797,-75.4584)">
			<title>Sheet.66</title>
			<desc>Pins</desc>
			<v:textBlock v:margins="rect(4,4,4,4)" v:tabSpace="42.5197"/>
			<v:textRect cx="42.5197" cy="473.059" width="85.04" height="22.6772"/>
			<rect x="0" y="461.72" width="85.0394" height="22.6772" rx="5.66929" ry="5.66929" class="st2"/>
			<text x="32.54" y="476.66" class="st3" v:langID="2057"><v:paragraph v:horizAlign="1"/><v:tabList/>Pins</text>		</g>
		<g id="shape67-225" v:mID="67" v:groupContext="shape" transform="translate(102.797,-47.112)">
			<title>Sheet.67</title>
			<desc>Sequential</desc>
			<v:textBlock v:margins="rect(4,4,4,4)" v:tabSpace="42.5197"/>
			<v:textRect cx="42.5197" cy="473.059" width="85.04" height="22.6772"/>
			<rect x="0" y="461.72" width="85.0394" height="22.6772" class="st4"/>
			<text x="16.7" y="476.66" class="st3" v:langID="2057"><v:paragraph v:horizAlign="1"/><v:tabList/>Sequential</text>		</g>
		<g id="shape68-228" v:mID="68" v:groupContext="shape" transform="translate(102.797,-55.6159)">
			<title>Sheet.68</title>
			<path d="M0 470.22 L7.09 477.31 L0 484.4" class="st5"/>
		</g>
		<g id="shape69-231" v:mID="69" v:groupContext="shape" transform="translate(683.573,0.75) rotate(90)">
			<title>Sheet.69</title>
			<path d="M0 484.4 L481.89 484.4" class="st5"/>
		</g>
		<g id="shape70-234" v:mID="70" v:groupContext="shape" transform="translate(904.675,0.75) rotate(90)">
			<title>Sheet.70</title>
			<path d="M0 484.4 L481.89 484.4" class="st5"/>
		</g>
		<g id="shape71-237" v:mID="71" v:groupContext="shape" transform="translate(102.797,-132.151)">
			<title>Sheet.71</title>
			<desc>Heirarchy</desc>
			<v:textBlock v:margins="rect(4,4,4,4)" v:tabSpace="42.5197"/>
			<v:textRect cx="42.5197" cy="473.059" width="85.04" height="22.6772"/>
			<path d="M0 484.4 L85.04 484.4 L85.04 461.72 L0 461.72 L0 484.4 Z" class="st6"/>
			<text x="18.96" y="476.66" class="st3" v:langID="2057"><v:paragraph v:horizAlign="1"/><v:tabList/>Heirarchy</text>		</g>
		<g id="shape72-240" v:mID="72" v:groupContext="shape" transform="translate(12.0886,-449.632)">
			<title>Sheet.72</title>
			<desc>Combinatorial</desc>
			<v:textBlock v:margins="rect(4,4,4,4)" v:tabSpace="42.5197"/>
			<v:textRect cx="87.874" cy="470.224" width="175.75" height="28.3465"/>
			<rect x="0" y="456.051" width="175.748" height="28.3465" class="st10"/>
			<text x="53.27" y="473.82" class="st3" v:langID="2057"><v:paragraph v:horizAlign="1"/><v:tabList/>Combinatorial</text>		</g>
		<g id="shape73-243" v:mID="73" v:groupContext="shape" transform="translate(221.852,-449.632)">
			<title>Sheet.73</title>
			<desc>Registered</desc>
			<v:textBlock v:margins="rect(4,4,4,4)" v:tabSpace="42.5197"/>
			<v:textRect cx="87.874" cy="470.224" width="175.75" height="28.3465"/>
			<rect x="0" y="456.051" width="175.748" height="28.3465" class="st10"/>
			<text x="61.86" y="473.82" class="st3" v:langID="2057"><v:paragraph v:horizAlign="1"/><v:tabList/>Registered</text>		</g>
		<g id="shape74-246" v:mID="74" v:groupContext="shape" transform="translate(442.955,-449.632)">
			<title>Sheet.74</title>
			<desc>Pipelined</desc>
			<v:textBlock v:margins="rect(4,4,4,4)" v:tabSpace="42.5197"/>
			<v:textRect cx="87.874" cy="470.224" width="175.75" height="28.3465"/>
			<rect x="0" y="456.051" width="175.748" height="28.3465" class="st10"/>
			<text x="65.22" y="473.82" class="st3" v:langID="2057"><v:paragraph v:horizAlign="1"/><v:tabList/>Pipelined</text>		</g>
		<g id="shape75-249" v:mID="75" v:groupContext="shape" transform="translate(6.41929,-47.112)">
			<title>Sheet.75</title>
			<desc>BUTTON2</desc>
			<v:textBlock v:margins="rect(4,4,4,4)" v:tabSpace="42.5197"/>
			<v:textRect cx="31.1811" cy="473.059" width="62.37" height="22.6772"/>
			<rect x="0" y="461.72" width="62.3622" height="22.6772" rx="5.66929" ry="5.66929" class="st2"/>
			<text x="7.33" y="476.66" class="st3" v:langID="2057"><v:paragraph v:horizAlign="1"/><v:tabList/>BUTTON2</text>		</g>
		<g id="shape76-252" v:mID="76" v:groupContext="shape" transform="translate(68.7815,-62.7025)">
			<title>Sheet.76</title>
			<path d="M0 484.4 L27.48 484.4" class="st8"/>
		</g>
		<g id="shape77-257" v:mID="77" v:groupContext="shape" transform="translate(199.175,802.628) rotate(180)">
			<title>Sheet.77</title>
			<path d="M0 484.4 L198.43 484.4" class="st5"/>
		</g>
		<g id="shape78-260" v:mID="78" v:groupContext="shape" transform="translate(0.75,-132.151)">
			<title>Sheet.78</title>
			<desc>Key</desc>
			<v:textBlock v:margins="rect(4,4,4,4)" v:tabSpace="42.5197"/>
			<v:textRect cx="41.1024" cy="470.224" width="82.21" height="28.3465"/>
			<rect x="0" y="456.051" width="82.2047" height="28.3465" class="st10"/>
			<text x="32.28" y="473.82" class="st3" v:langID="2057"><v:paragraph v:horizAlign="1"/><v:tabList/>Key</text>		</g>
		<g id="shape79-263" v:mID="79" v:groupContext="shape" transform="translate(22.0098,-7.42695)">
			<title>Sheet.79</title>
			<desc>Clock for all components is driven by BUTTON2</desc>
			<v:textBlock v:margins="rect(4,4,4,4)" v:tabSpace="42.5197"/>
			<v:textRect cx="56.6929" cy="470.224" width="113.39" height="28.3465"/>
			<rect x="0" y="456.051" width="113.386" height="28.3465" class="st10"/>
			<text x="28.26" y="459.42" class="st3" v:langID="2057"><v:paragraph v:horizAlign="1"/><v:tabList/>Clock for all <tspan
						x="4.33" dy="1.2em" class="st11">components is driven </tspan><tspan x="25.62" dy="1.2em" class="st11">by BUTTON</tspan>2</text>		</g>
	</g>
</svg>
